<svg width="41" height="40" viewBox="0 0 41 40" fill="none" xmlns="http://www.w3.org/2000/svg">
<path d="M39.7611 14.3638L35.2878 2.73297C34.4401 0.534282 31.9705 -0.560898 29.7718 0.286779C29.7399 0.299113 29.708 0.311779 29.6764 0.324863L7.32142 9.59164C5.19281 10.4648 4.14663 12.8743 4.96206 15.0257L5.57673 16.6664H4.16672C1.86661 16.669 0.00258336 18.533 0 20.8331V35.8333C0.00258336 38.1334 1.86661 39.9974 4.16672 40H32.5004C34.8005 39.9974 36.6645 38.1334 36.6671 35.8333V20.8331C36.6658 20.6069 36.6457 20.3813 36.6071 20.1584L37.3811 19.8451C39.5287 18.9648 40.5842 16.534 39.7611 14.3638ZM4.16672 17.9998H32.5004C33.9967 18.0041 35.2311 19.1727 35.3171 20.6665H1.35002C1.43602 19.1726 2.67037 18.004 4.16672 17.9998ZM10.8675 13.9838L15.3235 11.7551L16.2395 14.0464L11.7835 16.2745L10.8675 13.9838ZM35.3338 35.8334C35.3319 37.3975 34.0645 38.6649 32.5004 38.6667H4.16672C2.60261 38.6649 1.33518 37.3975 1.33335 35.8334V27.3333H35.3338V35.8334ZM35.3338 25.9999H1.33335V21.9999H35.3338V25.9999ZM36.8811 18.6132L36.1844 18.8952C35.4648 17.5265 34.0467 16.6686 32.5004 16.6665H13.9815L17.3849 14.9645C17.6952 14.8095 17.835 14.4425 17.7062 14.1204L16.2922 10.5871C16.1554 10.2452 15.7675 10.0789 15.4257 10.2156C15.4084 10.2225 15.3915 10.2301 15.3749 10.2384L9.7222 13.0664C9.41211 13.2216 9.27269 13.5885 9.40153 13.9104L10.5042 16.6665H7.00008L6.21074 14.5611C5.65115 13.0829 6.36991 11.4279 7.83209 10.8277L30.1864 1.56096C31.6808 0.941287 33.3946 1.65038 34.0144 3.14481C34.0241 3.16806 34.0334 3.19148 34.0424 3.21498L38.5158 14.8458C39.0817 16.3371 38.3568 18.0077 36.8811 18.6132Z" fill="#559DEC"/>
<path d="M23.9816 36.7921C25.2239 37.5138 26.758 37.5138 28.0004 36.7921C29.9106 37.9018 32.3588 37.2529 33.4685 35.3427C34.5783 33.4325 33.9294 30.9843 32.0192 29.8746C31.4061 29.5184 30.7094 29.3315 30.0004 29.3332C29.2975 29.3335 28.6074 29.5203 28.0004 29.8746C26.0902 28.7648 23.642 29.4136 22.5322 31.3238C21.4225 33.2341 22.0714 35.6822 23.9816 36.7921ZM29.115 30.8293C29.3986 30.7248 29.6981 30.6698 30.0004 30.6666C31.4732 30.6666 32.6671 31.8606 32.6671 33.3333C32.6671 34.8061 31.4732 36 30.0004 36C29.6981 35.9969 29.3986 35.9419 29.115 35.8374C30.2954 34.3766 30.2954 32.29 29.115 30.8293ZM28.0004 31.588C28.8893 32.5818 28.8893 34.0849 28.0004 35.0787C27.1114 34.0849 27.1114 32.5818 28.0004 31.588ZM26.0003 30.6666C26.3026 30.6697 26.6021 30.7248 26.8857 30.8293C25.7053 32.29 25.7053 34.3767 26.8857 35.8374C26.6021 35.9419 26.3026 35.9969 26.0003 36C24.5276 36 23.3336 34.8061 23.3336 33.3333C23.3336 31.8605 24.5276 30.6666 26.0003 30.6666Z" fill="#559DEC"/>
<path d="M28.122 13.7586L28.6636 14.977L35.0237 12.1498L34.4821 10.9314L28.122 13.7586Z" fill="#559DEC"/>
<path d="M33.0626 8.10887L23.876 12.3491L24.4345 13.5592L33.6212 9.31894L33.0626 8.10887Z" fill="#559DEC"/>
</svg>
