<svg width="46" height="40" viewBox="0 0 46 40" fill="none" xmlns="http://www.w3.org/2000/svg">
<path d="M10 0H1.42857C0.638952 0 0 0.638952 0 1.42857V27.1429C0 27.9325 0.638952 28.5714 1.42857 28.5714H10C10.7896 28.5714 11.4286 27.9325 11.4286 27.1429V1.42857C11.4286 0.638952 10.7896 0 10 0ZM8.57143 25.7143H2.85715V2.85714H8.57143V25.7143Z" fill="#559DEC"/>
<path d="M45.5652 19.195L42.5295 8.11383C41.6827 5.01951 38.8492 2.85851 35.6405 2.85851L21.4288 2.85712C17.4904 2.85712 14.2859 6.06163 14.2859 9.99998V22.0926C14.2859 23.8588 14.936 25.5552 16.119 26.8708L27.51 39.5271C27.7848 39.8326 28.1726 40 28.5716 40C28.6874 40 28.8032 39.986 28.9176 39.9567L31.0172 39.4322C32.3202 39.1071 33.3749 38.2129 33.9092 36.9796C34.4436 35.7478 34.3766 34.368 33.7237 33.1947L30.748 27.8362C30.3908 27.1917 30.642 26.6294 30.7661 26.4188C30.8903 26.2067 31.26 25.7143 31.998 25.7143H40.4383C43.3471 25.7143 45.7145 23.3468 45.7145 20.438C45.7145 20.039 45.6685 19.64 45.5652 19.195L45.5652 19.195ZM40.4382 22.8572H31.998C30.4634 22.8572 29.0822 23.6468 28.3038 24.9693C27.5253 26.2919 27.5058 27.8823 28.2507 29.223L31.2265 34.5815C31.4441 34.9735 31.4664 35.4325 31.2878 35.8427C31.1093 36.2542 30.7577 36.5528 30.3238 36.6616L29.0585 36.9769L18.2437 24.9596C17.5336 24.1713 17.143 23.1529 17.143 22.0927V10C17.143 7.63674 19.0654 5.71431 21.4287 5.71431H35.6405C37.5657 5.71431 39.2649 7.01174 39.7728 8.86859L42.7945 19.8954C42.8364 20.074 42.8573 20.2567 42.8573 20.4381C42.8573 21.7718 41.7719 22.8572 40.4382 22.8572L40.4382 22.8572Z" fill="#559DEC"/>
</svg>
