<svg width="26" height="26" viewBox="0 0 26 26" fill="none" xmlns="http://www.w3.org/2000/svg">
<path d="M18.4267 8.38611H17.0658C16.7698 8.38611 16.4883 8.5283 16.3142 8.77205L11.7526 15.0979L9.68656 12.231C9.51246 11.9901 9.23388 11.845 8.935 11.845H7.57406C7.38545 11.845 7.27518 12.0598 7.38545 12.2136L11.0011 17.2278C11.0865 17.3471 11.1991 17.4442 11.3295 17.5112C11.46 17.5782 11.6045 17.6132 11.7512 17.6132C11.8978 17.6132 12.0424 17.5782 12.1728 17.5112C12.3033 17.4442 12.4159 17.3471 12.5013 17.2278L18.6125 8.75464C18.7256 8.60084 18.6154 8.38611 18.4267 8.38611Z" fill="#559DEC"/>
<path d="M13 0C5.82098 0 0 5.82098 0 13C0 20.179 5.82098 26 13 26C20.179 26 26 20.179 26 13C26 5.82098 20.179 0 13 0ZM13 23.7946C7.03973 23.7946 2.20536 18.9603 2.20536 13C2.20536 7.03973 7.03973 2.20536 13 2.20536C18.9603 2.20536 23.7946 7.03973 23.7946 13C23.7946 18.9603 18.9603 23.7946 13 23.7946Z" fill="#559DEC"/>
</svg>
