<svg width="40" height="40" viewBox="0 0 40 40" fill="none" xmlns="http://www.w3.org/2000/svg">
<path d="M14.1211 15.371H16.4648V17.7148H14.1211V15.371Z" fill="#559DEC"/>
<path d="M34.1422 5.85781C30.3646 2.08039 25.3422 0 20 0C14.6578 0 9.63539 2.08039 5.85781 5.85781C2.08039 9.63539 0 14.6578 0 20C0 25.3422 2.08039 30.3646 5.85781 34.1422C9.63539 37.9196 14.6578 40 20 40C25.3422 40 30.3646 37.9196 34.1422 34.1422C37.9196 30.3646 40 25.3422 40 20C40 14.6578 37.9196 9.63539 34.1422 5.85781ZM32.4848 32.4848C29.15 35.8197 24.7162 37.6562 20 37.6562C15.2838 37.6562 10.85 35.8197 7.51516 32.4848C4.18031 29.15 2.34375 24.7162 2.34375 20C2.34375 15.2838 4.18031 10.85 7.51516 7.51516C10.85 4.18031 15.2838 2.34375 20 2.34375C24.7162 2.34375 29.15 4.18031 32.4848 7.51516C35.8197 10.85 37.6562 15.2838 37.6562 20C37.6562 24.7162 35.8197 29.15 32.4848 32.4848Z" fill="#559DEC"/>
<path d="M16.4649 8.76062H14.1212C14.1212 11.0632 12.2479 12.9365 9.94531 12.9365V15.2802C13.5402 15.2802 16.4649 12.3555 16.4649 8.76062Z" fill="#559DEC"/>
<path d="M23.5352 15.371H25.8789V17.7148H23.5352V15.371Z" fill="#559DEC"/>
<path d="M30.0548 15.2802V12.9365C27.7522 12.9365 25.8789 11.0632 25.8789 8.76062H23.5352C23.5352 12.3555 26.4599 15.2802 30.0548 15.2802Z" fill="#559DEC"/>
<path d="M19.9998 21.1816C14.8544 21.1816 10.1982 24.2288 8.1377 28.9447L10.2854 29.8831C11.9729 26.0209 15.7861 23.5255 19.9998 23.5255C24.2136 23.5255 28.0268 26.021 29.7143 29.8832L31.862 28.9448C29.8014 24.2288 25.1452 21.1816 19.9998 21.1816Z" fill="#559DEC"/>
</svg>
